# AST/ASF file generated using VICON BodyLanguage
# -----------------------------------------------
:version 1.10
:name VICON
:units
  mass 1.0
  length 0.45
  angle deg
:documentation
   .ast/.asf automatically generated from VICON data using
   VICON BodyBuilder and BodyLanguage model FoxedUp or BRILLIANT.MOD
:root
   order TX TY TZ RX RY RZ
   axis XYZ
   position 0 0 0  
   orientation 0 0 0 
:bonedata
  begin
     id 1 
     name lhipjoint
     direction 0.682418 -0.694059 0.22932 
     length 2.25561 
     axis 0 0 0  XYZ
  end
  begin
     id 2 
     name lfemur
     direction 0.34202 -0.939693 0  
     length 6.96448  
     axis 0 0 20  XYZ
    dof rx ry rz
    limits (-160.0 20.0)
           (-70.0 70.0)
           (-60.0 70.0)
  end
  begin
     id 3 
     name ltibia
     direction 0.34202 -0.939693 0   
     length 6.88553   
     axis 0 0 20   XYZ
    dof rx
    limits (-10.0 170.0)
  end
  begin
     id 4 
     name lfoot
     direction 0.0723587 -0.198804 0.977364   
     length 1.88518   
     axis -90 7.62852e-016 20   XYZ
    dof rx rz
    limits (-45.0 90.0)
           (-70.0 20.0)
  end
  begin
     id 5 
     name ltoes
     direction 1.53558e-011 -4.21962e-011 1   
     length 0.952124   
     axis -90 7.62852e-016 20   XYZ
    dof rx
    limits (-90.0 20.0)
  end
  begin
     id 6 
     name rhipjoint
     direction -0.657603 -0.71533 0.236348   
     length 2.18854  
     axis 0 0 0  XYZ 
  end
  begin
     id 7 
     name rfemur
     direction -0.34202 -0.939693 0   
     length 6.86686   
     axis 0 0 -20   XYZ
    dof rx ry rz
    limits (-160.0 20.0)
           (-70.0 70.0)
           (-70.0 60.0)
  end
  begin
     id 8 
     name rtibia
     direction -0.34202 -0.939693 0   
     length 6.59503   
     axis 0 0 -20   XYZ
    dof rx
    limits (-10.0 170.0)
 end
 begin
     id 9 
     name rfoot
     direction -0.101977 -0.280179 0.954516   
     length 1.93723  
     axis -90 -7.62852e-016 -20   XYZ
    dof rx rz
    limits (-45.0 90.0)
           (-20.0 70.0)
  end
  begin
     id 10 
     name rtoes
     direction -1.53564e-011 -4.21897e-011 1   
     length 0.970315   
     axis -90 -7.62852e-016 -20   XYZ
    dof rx
    limits (-90.0 20.0)
  end
  begin
     id 11 
     name lowerback
     direction -0.0339559 0.999421 -0.00235966   
     length 1.88543   
     axis 0 0 0   XYZ
    dof rx ry rz
    limits (-20.0 45.0)
           (-30.0 30.0)
           (-30.0 30.0)
  end
  begin
     id 12 
     name upperback
     direction 0.00401003 0.999739 0.0224689   
     length 1.8856   
     axis 0 0 0   XYZ
    dof rx ry rz
    limits (-20.0 45.0)
           (-30.0 30.0)
           (-30.0 30.0)
  end
  begin
     id 13 
     name thorax
     direction 0.0198619 0.999546 0.0226536   
     length 1.88352   
     axis 0 0 0   XYZ
    dof rx ry rz
    limits (-20.0 45.0)
           (-30.0 30.0)
           (-30.0 30.0)
  end
  begin
     id 14 
     name lowerneck
     direction -0.0461848 0.998632 0.0245198   
     length 1.34895   
     axis 0 0 0   XYZ
    dof rx ry rz
    limits (-20.0 45.0)
           (-30.0 30.0)
           (-30.0 30.0)
  end
  begin
     id 15 
     name upperneck
     direction -0.0180627 0.994724 -0.100984   
     length 1.35214   
     axis 0 0 0   XYZ
    dof rx ry rz
    limits (-20.0 45.0)
           (-30.0 30.0)
           (-30.0 30.0)
  end
  begin
     id 16
     name head
     direction -0.00374772 0.999293 -0.037403  
     length 1.3568  
     axis 0 0 0   XYZ
    dof rx ry rz
    limits (-20.0 45.0)
           (-30.0 30.0)
           (-30.0 30.0)
  end
  begin
     id 17 
     name lclavicle
     direction 0.971773 0.191119 0.138311  
     length 2.84954  
     axis 0 0 0   XYZ
    dof ry rz
    limits (-20.0 10.0)
           (0.0 20.0)
  end
  begin
     id 18 
     name lhumerus
     direction 1 -4.4897e-011 -2.43761e-027   
     length 4.40919   
     axis 180 -30 -90   XYZ
    dof rx ry rz
    limits (-60.0 90.0)
           (-90.0 90.0)
           (-90.0 90.0)
  end
  begin
     id 19
     name lradius
     direction 1 -4.4896e-011 -9.1621e-027   
     length 3.03857   
     axis 180 -30 -90   XYZ
    dof rx
    limits (-10.0 170.0)
  end
  begin
     id 20
     name lwrist
     direction 1 -4.4896e-011 -1.41363e-026   
     length 1.51928   
     axis 1.07133e-014 90 90   XYZ
    dof ry
    limits (-180.0 0.0)
 end
  begin
     id 21 
     name lhand
     direction 1 -4.48978e-011 -2.82725e-026   
     length 0.523208   
     axis 1.80403e-014 90 90   XYZ
    dof rx rz
    limits (-90.0 90.0)
           (-45.0 45.0)
  end
  begin
     id 22 
     name lfingers
     direction 1 -4.48977e-011 -5.6545e-026   
     length 0.421824   
     axis 3.60806e-014 90 90   XYZ
    dof rx
    limits (0.0 90.0)
  end
  begin
     id 23
     name lthumb
     direction 0.707107 -6.34962e-011 0.707107   
     length 0.605657   
     axis -90 45 2.85299e-015   XYZ
    dof rx rz
    limits (-45.0 45.0)
           (-45.0 45.0)
  end
  begin
     id 24 
     name rclavicle
     direction -0.957247 0.24311 0.156766   
     length 3.12406  
     axis 0 0 0   XYZ 
    dof ry rz
    limits (-10.0 20.0)
           (-20.0 0.0)
  end
  begin
     id 25 
     name rhumerus
     direction -1 -4.48964e-011 -1.70632e-027  
     length 4.61969   
     axis 180 30 90   XYZ
    dof rx ry rz
    limits (-90.0 60.0)
           (-90.0 90.0)
           (-90.0 90.0)
  end
  begin
     id 26 
     name rradius
     direction -1 -4.48966e-011 -6.60395e-027   
     length 3.09382   
     axis 180 30 90   XYZ
    dof rx
    limits (-10.0 170.0)
  end
  begin
     id 27 
     name rwrist
     direction -1 -4.48963e-011 -1.41363e-026   
     length 1.54691   
     axis 1.07133e-014 -90 -90   XYZ
    dof ry
    limits (-180.0 0.0)
  end
  begin
     id 28
     name rhand
     direction -1 -4.49013e-011 -2.82725e-026   
     length 0.500896   
     axis 1.80403e-014 -90 -90   XYZ
    dof rx rz
    limits (-90.0 90.0)
           (-45.0 45.0)
  end
  begin
     id 29
     name rfingers
     direction -1 -4.48902e-011 -5.6545e-026   
     length 0.403835   
     axis 3.60806e-014 -90 -90   XYZ
    dof rx
    limits (0.0 90.0)
  end
  begin
     id 30
     name rthumb
     direction -0.707107 -6.34953e-011 0.707107   
     length 0.579829   
     axis -90 -45 -2.85299e-015   XYZ
    dof rx rz
    limits (-45.0 45.0)
           (-45.0 45.0)
  end
:hierarchy
  begin
    root lhipjoint rhipjoint lowerback
    lhipjoint lfemur
    lfemur ltibia
    ltibia lfoot
    lfoot ltoes
    rhipjoint rfemur
    rfemur rtibia
    rtibia rfoot
    rfoot rtoes
    lowerback upperback
    upperback thorax
    thorax lowerneck lclavicle rclavicle
    lowerneck upperneck
    upperneck head
    lclavicle lhumerus
    lhumerus lradius
    lradius lwrist
    lwrist lhand lthumb
    lhand lfingers
    rclavicle rhumerus
    rhumerus rradius
    rradius rwrist
    rwrist rhand rthumb
    rhand rfingers
  end

#!OML:ASF E:\madness\Project 1\Capture day 1\Session 1\Female1.ASF
:FULLY-SPECIFIED
:DEGREES
257
root 1.17976 15.6288 0.958556 -348.625 -78.6997 358.997
lowerback -4.26399 -3.93229 -3.60301
upperback -3.32805 -5.18586 1.43306
thorax -0.59541 -2.5556 3.27697
lowerneck 5.32689 12.0504 6.61357
upperneck -1.04216 16.3509 -7.02546
head -0.0387868 8.25901 -3.47887
rclavicle -3.08039e-014 5.66536e-015
rhumerus -60.1535 -7.38338 -44.0958
rradius 80.5391
rwrist 6.66475
rhand -20.1721 -44.9429
rfingers 7.12502
rthumb 6.1737 -74.833
lclavicle -3.08039e-014 5.66536e-015
lhumerus -27.7873 -6.06431 70.1434
lradius 95.1391
lwrist -26.4636
lhand -38.0703 -27.2894
lfingers 7.12502
lthumb -11.1071 2.39672
rfemur -32.193 5.58491 12.8838
rtibia 42.1349
rfoot -13.1161 -13.7225
rtoes -1.06077
lfemur -0.56208 -18.8185 -10.782
ltibia 37.6283
lfoot -7.74858 -0.55634
ltoes 9.09796
258
root 1.34521 15.6326 1.01145 -347.954 -78.6208 358.669
lowerback -4.37137 -4.00388 -3.63236
upperback -3.38354 -5.27942 1.56382
thorax -0.570775 -2.60192 3.41696
lowerneck 6.8782 11.7163 7.42631
upperneck -2.5608 15.9702 -8.31141
head -0.648161 8.11255 -4.24309
rclavicle 2.79013e-014 9.19379e-015
rhumerus -59.9081 -7.36781 -44.3097
rradius 80.7022
rwrist 6.88473
rhand -20.1575 -44.6284
rfingers 7.12502
rthumb 6.18773 -74.518
lclavicle 2.79013e-014 9.19379e-015
lhumerus -27.1558 -6.37755 70.4831
lradius 94.5474
lwrist -26.5368
lhand -37.5048 -26.3835
lfingers 7.12502
lthumb -10.5617 3.33112
rfemur -32.9739 6.00282 12.3423
rtibia 41.5514
rfoot -12.2392 -14.0805
rtoes -1.5134
lfemur -0.294711 -19.246 -10.8146
ltibia 35.4789
lfoot -8.82616 0.350028
ltoes 4.8094
259
root 1.50894 15.635 1.05128 -346.989 -78.4369 358.21
lowerback -4.60981 -4.16018 -3.81048
upperback -3.49235 -5.4792 1.76667
thorax -0.498729 -2.70006 3.69949
lowerneck 6.54614 11.8401 7.22585
upperneck -2.18994 16.123 -7.96645
head -0.503045 8.17792 -4.04576
rclavicle -7.64878e-014 -7.67806e-015
rhumerus -59.6386 -7.17845 -44.6326
rradius 80.9381
rwrist 7.11606
rhand -20.5403 -43.8496
rfingers 7.12502
rthumb 5.81824 -73.7497
lclavicle -7.64878e-014 -7.67806e-015
lhumerus -26.706 -6.6169 70.757
lradius 94.0633
lwrist -26.4448
lhand -37.2686 -25.7157
lfingers 7.12502
lthumb -10.3338 4.01037
rfemur -33.9022 6.60938 11.7923
rtibia 40.8792
rfoot -11.2661 -14.7723
rtoes -1.92686
lfemur -0.40969 -19.5601 -10.5775
ltibia 33.538
lfoot -9.98162 0.663721
ltoes 2.42906
260
root 1.70246 15.6457 1.12372 -347.266 -78.5415 359.046
lowerback -4.49099 -4.21712 -3.76723
upperback -3.66522 -5.56724 1.81604
thorax -0.734553 -2.73857 3.73943
lowerneck 6.21681 11.9487 7.03383
upperneck -2.03149 16.2464 -7.76436
head -0.418177 8.23169 -3.90974
rclavicle -6.39053e-014 -1.33248e-015
rhumerus -59.1874 -6.91196 -45.0025
rradius 81.2201
rwrist 7.39753
rhand -20.9146 -43.6497
rfingers 7.12502
rthumb 5.45677 -73.5594
lclavicle -6.39053e-014 -1.33248e-015
lhumerus -26.2514 -6.72678 71.0186
lradius 93.5273
lwrist -26.4867
lhand -37.1851 -25.4883
lfingers 7.12502
lthumb -10.2532 4.24177
rfemur -34.8247 6.75741 10.8511
rtibia 40.0554
rfoot -10.1893 -14.8971
rtoes -2.1957
lfemur -0.502069 -19.8684 -10.9482
ltibia 31.8217
lfoot -11.0562 1.43299
ltoes 0.94794
261
root 1.88509 15.6601 1.19158 -347.402 -78.8793 359.613
lowerback -4.58209 -4.12642 -3.84239
upperback -3.53698 -5.43672 1.86492
thorax -0.552096 -2.67669 3.82508
lowerneck 6.05711 11.8553 7.19595
upperneck -2.54898 16.1001 -8.19879
head -0.518519 8.16373 -4.09428
rclavicle 5.30087e-014 1.93815e-015
rhumerus -58.5595 -7.06987 -45.2498
rradius 81.5112
rwrist 7.77613
rhand -20.7469 -43.8611
rfingers 7.12502
rthumb 5.61872 -73.7666
lclavicle 5.30087e-014 1.93815e-015
lhumerus -25.3401 -6.87864 71.2668
lradius 92.9158
lwrist -26.6835
lhand -37.0922 -25.9789
lfingers 7.12502
lthumb -10.1636 3.75558
rfemur -35.5857 7.30905 9.90657
rtibia 39.069
rfoot -9.16248 -15.2229
rtoes -1.92589
lfemur -0.53718 -20.1573 -11.3767
ltibia 30.3877
lfoot -12.0007 2.75026
ltoes -1.12936
262
root 2.06203 15.6764 1.25954 -347.309 -79.2185 359.881
lowerback -4.68258 -3.99754 -3.87237
upperback -3.3978 -5.25609 1.8917
thorax -0.364368 -2.59087 3.86556
lowerneck 6.1365 11.697 7.55728
upperneck -3.21603 15.8816 -8.7977
head -0.686402 8.06565 -4.39837
rclavicle 6.9761e-015 -3.35449e-015
rhumerus -58.0445 -7.26503 -45.4401
rradius 81.6977
rwrist 8.23825
rhand -20.0781 -44.3111
rfingers 7.12502
rthumb 6.26443 -74.1985
lclavicle 6.9761e-015 -3.35449e-015
lhumerus -24.5684 -7.11468 71.5065
lradius 92.357
lwrist -27.0762
lhand -37.192 -26.8834
lfingers 7.12502
lthumb -10.2598 2.84635
rfemur -36.1946 8.15711 8.92669
rtibia 37.9285
rfoot -8.30778 -15.7887
rtoes -0.979156
lfemur -0.679045 -20.539 -11.7245
ltibia 29.1683
lfoot -12.7343 4.10152
ltoes -3.11297
263
root 2.24714 15.6926 1.3297 -347.324 -79.5073 360.296
lowerback -4.48462 -3.97129 -3.88615
upperback -3.55429 -5.23318 1.94931
thorax -0.632011 -2.57172 3.95631
lowerneck 6.33718 11.7163 7.81672
upperneck -3.41331 15.9271 -9.01253
head -0.741811 8.09454 -4.53989
rclavicle 3.83592e-015 4.96962e-016
rhumerus -57.6073 -6.93309 -45.728
rradius 81.7157
rwrist 8.63533
rhand -19.5813 -44.4621
rfingers 7.12502
rthumb 6.74401 -74.3347
lclavicle 3.83592e-015 4.96962e-016
lhumerus -24.4181 -7.24697 71.8026
lradius 91.825
lwrist -27.5293
lhand -37.6351 -27.3687
lfingers 7.12502
lthumb -10.6873 2.33947
rfemur -36.7751 9.05326 7.83529
rtibia 36.6381
rfoot -7.36805 -16.4922
rtoes -0.0800076
lfemur -1.0375 -20.9113 -12.0141
ltibia 28.0797
lfoot -13.468 5.41781
ltoes -5.52297
264
root 2.43772 15.7096 1.39616 -347.795 -79.8806 361.244
lowerback -4.29887 -4.03054 -4.13372
upperback -3.79297 -5.32039 2.07089
thorax -0.941906 -2.60156 4.24024
lowerneck 6.70958 11.8206 8.08227
upperneck -3.59179 16.0987 -9.23394
head -0.808168 8.18988 -4.69642
rclavicle 4.43352e-014 1.33186e-014
rhumerus -57.0508 -6.23681 -46.1332
rradius 81.7442
rwrist 8.95063
rhand -19.6859 -43.9399
rfingers 7.12502
rthumb 6.64303 -73.8157
lclavicle 4.43352e-014 1.33186e-014
lhumerus -24.5372 -7.22001 72.1153
lradius 91.3994
lwrist -27.645
lhand -37.9978 -27.3485
lfingers 7.12502
lthumb -11.0371 2.34127
rfemur -37.3927 9.90951 6.62127
rtibia 35.1986
rfoot -6.22784 -17.2143
rtoes -0.141971
lfemur -1.56315 -21.2009 -12.3694
ltibia 27.1546
lfoot -13.9316 6.8763
ltoes -7.66587
265
root 2.6262 15.7346 1.46054 -348.334 -80.4111 362.302
lowerback -4.2617 -3.92394 -4.41174
upperback -3.7513 -5.17044 2.14852
thorax -0.905336 -2.52212 4.48403
lowerneck 5.97915 11.8572 7.95699
upperneck -3.59589 16.0928 -9.30076
head -0.68499 8.17619 -4.63363
rclavicle -1.10263e-014 -1.17283e-014
rhumerus -56.4029 -6.07645 -46.4643
rradius 81.8741
rwrist 9.27532
rhand -19.5318 -44.3746
rfingers 7.12502
rthumb 6.79176 -74.2456
lclavicle -1.10263e-014 -1.17283e-014
lhumerus -23.9802 -7.37683 72.389
lradius 90.9923
lwrist -27.5153
lhand -37.8155 -27.0375
lfingers 7.12502
lthumb -10.8613 2.66159
rfemur -38.0098 10.7858 5.37449
rtibia 33.5834
rfoot -5.05573 -17.9431
rtoes -0.00291811
lfemur -2.22754 -21.4218 -12.7463
ltibia 26.4192
lfoot -14.0615 7.91172
ltoes -8.01132
